<svg width="30" height="30" viewBox="0 0 30 30" fill="none" xmlns="http://www.w3.org/2000/svg">
<path d="M25.7872 21.2168C24.9668 20.7129 23.7305 19.9512 23.7481 19.1426C23.8711 13.9688 22.6348 10.0254 20.1797 7.75195C19.6172 7.23047 18.9961 6.80273 18.3282 6.47461C18.7969 5.87109 19.0723 5.13867 19.0723 4.34766C19.0723 2.30859 17.2442 0.644531 14.9942 0.644531C12.7442 0.644531 10.9161 2.30859 10.9161 4.34766C10.9161 5.13867 11.1914 5.87109 11.6602 6.47461C10.9922 6.80273 10.3711 7.23047 9.80864 7.75195C7.35356 10.0313 6.12309 13.9688 6.24028 19.1426C6.25785 19.9512 5.02153 20.7129 4.20121 21.2168C3.40434 21.709 2.40824 22.3242 2.75981 23.3555C3.11137 24.3867 3.63285 24.627 9.92582 24.6797C10.2129 26.9883 12.2872 29.3555 14.9942 29.3555C17.7012 29.3555 19.7696 26.9883 20.0625 24.6797C26.3555 24.627 26.8829 24.3867 27.2286 23.3555C27.5801 22.3242 26.5899 21.709 25.7872 21.2168V21.2168ZM15 3.03516C15.7969 3.03516 16.4414 3.62109 16.4414 4.34766C16.4414 5.06836 15.7969 5.66016 15 5.66016C14.2032 5.66016 13.5586 5.07422 13.5586 4.34766C13.5586 3.62695 14.2032 3.03516 15 3.03516V3.03516ZM15 26.9648C13.8868 26.9648 12.8731 25.8105 12.6036 24.6973C13.295 24.6973 16.7051 24.6973 17.3965 24.6973C17.127 25.8105 16.1133 26.9648 15 26.9648V26.9648ZM7.10746 22.2363C8.04496 21.4922 8.91215 20.4785 8.87699 19.0957C8.77153 14.6426 9.77348 11.209 11.6954 9.42773C12.6211 8.56641 13.7344 8.11523 15 8.08008C16.2657 8.11523 17.379 8.56641 18.3047 9.42773C20.2266 11.209 21.2227 14.6426 21.1231 19.0957C21.0938 20.4785 21.9551 21.4922 22.8926 22.2363C20.7012 22.3008 9.29887 22.3008 7.10746 22.2363Z" fill="white"/>
</svg>
