<svg width="30" height="30" viewBox="0 0 30 30" fill="none" xmlns="http://www.w3.org/2000/svg">
<path d="M27.2033 6.23349H24.8188C25.3657 5.83292 25.7876 5.27582 26.0232 4.62399C26.3674 3.67234 26.2773 2.6222 25.7765 1.74287C25.164 0.667766 24.014 0 22.775 0C21.7966 0 20.8934 0.398615 20.2316 1.12232L17.2908 4.33875C16.8439 3.82751 16.189 3.50258 15.4582 3.50258H14.5417C13.8109 3.50258 13.156 3.82751 12.7091 4.3389L9.76827 1.12247C9.10651 0.398615 8.20343 0 7.22501 0C5.98601 0 4.83588 0.667766 4.2236 1.74287C3.72259 2.62235 3.63267 3.67249 3.97685 4.62414C4.21247 5.27597 4.63439 5.83292 5.18112 6.23349H2.7968C2.17384 6.23349 1.66907 6.73841 1.66907 7.36121V13.4812C1.66907 14.0786 2.13399 14.5662 2.72161 14.6051V28.8723C2.72161 29.4951 3.22639 30 3.84934 30H11.4427H18.5573H26.1507C26.7737 30 27.2784 29.4951 27.2784 28.8723V14.6051C27.8661 14.5664 28.331 14.0787 28.331 13.4812V7.36121C28.331 6.73841 27.8262 6.23349 27.2033 6.23349ZM17.4296 8.49992V27.7445H12.5704V8.49992H13.2333H16.7668H17.4296ZM6.09788 3.85713C5.97699 3.52257 6.00721 3.16817 6.18329 2.85917C6.39876 2.48115 6.7882 2.25546 7.22501 2.25546C7.56243 2.25546 7.87443 2.39349 8.10374 2.6443L11.3854 6.23349H11.2352L6.80174 4.56971C6.46883 4.44461 6.21878 4.19154 6.09788 3.85713ZM23.9022 3.85698C23.7811 4.19154 23.5311 4.44461 23.198 4.56956L18.7648 6.23349H18.6146L21.8962 2.6443C22.1253 2.39349 22.4376 2.25546 22.775 2.25546C23.2118 2.25546 23.6013 2.48115 23.8168 2.85932C23.9925 3.16817 24.0231 3.52257 23.9022 3.85698Z" fill="white"/>
</svg>
