<svg width="32" height="34" viewBox="0 0 32 34" fill="none" xmlns="http://www.w3.org/2000/svg">
<path d="M16 30.3448C8.63602 30.3448 2.66669 24.1696 2.66669 16.5517C2.66669 8.93378 8.63602 2.75861 16 2.75861C23.364 2.75861 29.3334 8.93378 29.3334 16.5517C29.3334 24.1696 23.364 30.3448 16 30.3448ZM16 27.5862C18.829 27.5862 21.5421 26.4236 23.5425 24.3543C25.5429 22.2849 26.6667 19.4782 26.6667 16.5517C26.6667 13.6252 25.5429 10.8185 23.5425 8.74915C21.5421 6.67979 18.829 5.51723 16 5.51723C13.171 5.51723 10.4579 6.67979 8.45755 8.74915C6.45716 10.8185 5.33335 13.6252 5.33335 16.5517C5.33335 19.4782 6.45716 22.2849 8.45755 24.3543C10.4579 26.4236 13.171 27.5862 16 27.5862ZM14.6667 9.65516H17.3334V12.4138H14.6667V9.65516ZM14.6667 15.1724H17.3334V23.4483H14.6667V15.1724Z" fill="white"/>
</svg>
