<svg width="250" height="65" viewBox="0 0 250 65" fill="none" xmlns="http://www.w3.org/2000/svg">
<path d="M177.665 29.801L177.698 59.6136L181.008 59.7515C187.849 60.0273 196.389 60.487 201.751 60.8663C202.91 60.9467 203.881 60.9927 203.936 60.9697C203.98 60.9467 204.013 58.7056 204.013 56.0048V51.0859L203.053 51.0054C201.42 50.879 193.079 50.3848 190.144 50.2354L187.352 50.0975V42.5466V34.9958L187.882 35.0418C188.169 35.0533 190.21 35.1797 192.428 35.3176C194.646 35.444 196.974 35.5935 197.614 35.6394C198.254 35.6854 198.805 35.7084 198.861 35.6854C198.905 35.6624 198.938 33.4213 198.938 30.7205V25.8015L197.978 25.7211C196.753 25.6291 187.937 25.0775 187.606 25.0775H187.352V17.7105V10.3436L188.268 10.4126C188.765 10.447 190.74 10.562 192.649 10.6654C194.557 10.7688 197.867 10.9642 199.986 11.1021C202.115 11.24 203.881 11.3435 203.936 11.3205C203.98 11.2975 204.013 9.0564 204.013 6.33259C204.013 2.34456 203.98 1.40214 203.87 1.40214C203.793 1.40214 202.16 1.29871 200.251 1.17229C195.275 0.850486 186.734 0.402264 182.884 0.252857C181.063 0.195392 179.143 0.103449 178.603 0.0689706L177.643 1.33372e-05L177.665 29.801Z" fill="#DB202C"/>
<path d="M0 32.8122C0 50.4767 0.0220674 64.9463 0.0551685 64.9693C0.077236 65.0037 1.97503 64.7624 4.27005 64.4291C6.56506 64.1073 8.72766 63.797 9.08074 63.7625L9.70966 63.6821L9.7207 46.2474C9.7207 32.0422 9.7538 28.8816 9.86414 29.1574C9.94137 29.3413 12.4571 36.8462 15.4472 45.8221C18.4484 54.7981 20.9089 62.1535 20.9199 62.1765C20.9309 62.1995 23.0494 61.9811 25.6203 61.6938C28.1801 61.395 30.5744 61.1306 30.9275 61.0847L31.5564 61.0157V30.8699V0.71258H26.7016H21.8467L21.8247 18.8254L21.7916 36.9266L15.9547 20.0551C12.7439 10.7803 9.9193 2.63189 9.67656 1.94232L9.24625 0.71258H4.62312H0V32.8122Z" fill="#DB202C"/>
<path d="M40.8247 30.3986V60.0732L44.3335 59.7629C51.3288 59.1308 62.2081 58.3148 66.2354 58.108L67.747 58.0275V53.0396C67.747 49.7411 67.7139 48.0632 67.6366 48.0632C67.3498 48.0632 58.5449 48.6723 55.8857 48.8677C54.2528 48.9941 52.4874 49.1205 51.9688 49.155C51.4502 49.201 50.9206 49.247 50.7882 49.2814L50.5344 49.3274V41.8226V34.3062L52.046 34.2373C52.8735 34.1913 55.8195 34.1568 58.6111 34.1568H63.6645L63.6424 29.1804L63.6093 24.2155L57.0774 24.2614L50.5344 24.3074V17.5151V10.7113H59.1407H67.747V5.71193V0.712526H54.2859H40.8247V30.3986Z" fill="#DB202C"/>
<path d="M73.9258 5.71196V10.7114H79.0013H84.0769V33.95V57.1771L86.3719 57.1081C87.6297 57.0621 89.8144 56.9932 91.2267 56.9587L93.7865 56.8782V33.7891V10.7114H98.862H103.938V5.71196V0.712557H88.9317H73.9258V5.71196Z" fill="#DB202C"/>
<path d="M110.116 28.6402V56.5679H114.971H119.826V45.1325V33.6971H126.391H132.956V28.6977V23.6983H126.391H119.826V17.2048V10.7114H128.488H137.149V5.71195V0.712549H123.633H110.116V28.6402Z" fill="#DB202C"/>
<path d="M143.35 28.8931L143.383 57.0851L146.693 57.223C153.534 57.4989 162.074 57.9586 167.437 58.3379C168.595 58.4183 169.566 58.4643 169.621 58.4413C169.665 58.4183 169.698 56.1772 169.698 53.4764V48.5574L168.739 48.477C167.106 48.3505 158.764 47.8563 155.829 47.7069L153.038 47.569V24.1351V0.712572H148.183H143.328L143.35 28.8931Z" fill="#DB202C"/>
<path d="M215.709 0.758525C215.709 0.781511 218.214 7.53932 221.281 15.7682C224.348 23.9971 226.853 30.8239 226.853 30.9273C226.853 31.0308 224.117 37.7196 220.773 45.8106C216.327 56.5335 214.716 60.5215 214.826 60.5904C214.893 60.6364 215.367 60.7054 215.875 60.7513C216.382 60.7973 218.589 61.0272 220.796 61.2685C223.002 61.5214 224.823 61.7053 224.823 61.6938C224.834 61.6938 226.39 57.9356 228.287 53.3499C230.185 48.7643 231.785 44.9142 231.84 44.7992C231.929 44.6153 231.973 44.6039 232.039 44.7418C232.094 44.8337 233.672 49.0631 235.57 54.1544C237.467 59.2458 239.023 63.4177 239.045 63.4407C239.067 63.4637 241.285 63.7855 243.977 64.1647C246.659 64.544 249.13 64.8888 249.45 64.9462C250.013 65.0382 250.035 65.0267 249.98 64.7968C249.947 64.6589 247.133 57.0851 243.735 47.9483C240.325 38.8114 237.545 31.2606 237.534 31.1687C237.534 31.0767 240.314 24.2844 243.713 16.067C247.122 7.86112 249.936 1.04585 249.969 0.930919C250.035 0.724047 249.869 0.712554 244.75 0.712554H239.465L239.332 1.02286C239.255 1.20675 237.699 4.93044 235.879 9.32072C234.069 13.711 232.546 17.3542 232.513 17.4117C232.48 17.4692 232.414 17.4462 232.37 17.3657C232.326 17.2738 230.902 13.4926 229.225 8.95295L226.158 0.712554H220.928C218.059 0.712554 215.709 0.73554 215.709 0.758525Z" fill="#DB202C"/>
</svg>
