<svg width="30" height="30" viewBox="0 0 30 30" fill="none" xmlns="http://www.w3.org/2000/svg">
<path d="M6.80303 7.12246C6.50866 6.82765 6.03105 6.82858 5.73767 7.12246C3.7393 9.12182 3.7393 12.3728 5.73668 14.3702C5.88387 14.5173 6.07601 14.5909 6.26939 14.5909C6.46252 14.5909 6.65491 14.5173 6.80204 14.3702C7.09641 14.0758 7.09641 13.5991 6.80204 13.3048C5.39234 11.8946 5.39234 9.599 6.80303 8.18782C7.0974 7.89357 7.0974 7.41633 6.80303 7.12246Z" fill="white"/>
<path d="M29.1593 25.0994L20.0897 16.0314C22.4032 11.9344 21.8282 6.63458 18.3444 3.14858C16.3134 1.1178 13.6134 0 10.7426 0C7.87084 0 5.17082 1.1178 3.14071 3.14858C-1.0476 7.33779 -1.04661 14.1552 3.14195 18.3456C5.17373 20.3755 7.87275 21.4932 10.7445 21.4932C12.6303 21.4932 14.4375 21.0022 16.0338 20.0959L25.0984 29.1593C26.2187 30.28 28.0359 30.2805 29.1583 29.1593C29.6968 28.6207 29.9991 27.8908 30 27.1295C30 26.3678 29.6968 25.6378 29.1593 25.0994ZM5.27269 16.2145C2.25879 13.1993 2.25879 8.29381 5.2717 5.27906C6.7326 3.8179 8.67526 3.01352 10.7425 3.01352C12.8088 3.01352 14.7514 3.8179 16.2133 5.27862C19.2263 8.29381 19.2253 13.2003 16.2123 16.2155C14.7514 17.6757 12.8097 18.4796 10.7444 18.4796C8.67823 18.4796 6.73477 17.6752 5.27269 16.2145Z" fill="white"/>
</svg>
