<svg width="181" height="181" viewBox="0 0 181 181" fill="none" xmlns="http://www.w3.org/2000/svg">
<path d="M101.813 113.125H79.1875C79.1875 90.5 92.7625 83.7125 101.813 79.1875C105.206 78.0562 107.469 76.925 109.731 74.6625C110.863 73.5312 113.125 71.2687 110.863 66.7437C108.6 61.0875 101.813 55.4312 91.6313 55.4312C75.7938 55.4312 73.5313 69.0062 72.4 72.4L49.775 69.0062C50.9063 56.5625 61.0875 32.8062 90.5 32.8062C108.6 32.8062 124.438 42.9875 131.225 57.6937C135.75 70.1375 133.488 82.5812 124.438 91.6312C119.913 96.1562 115.388 98.4187 110.863 99.55C104.075 104.075 101.813 101.812 101.813 113.125V113.125Z" fill="white"/>
<path d="M90.5 11.3125C134.619 11.3125 169.688 46.3812 169.688 90.5C169.688 134.619 134.619 169.688 90.5 169.688C46.3812 169.688 11.3125 134.619 11.3125 90.5C11.3125 46.3812 46.3812 11.3125 90.5 11.3125ZM90.5 0C40.725 0 0 40.725 0 90.5C0 140.275 40.725 181 90.5 181C140.275 181 181 140.275 181 90.5C181 40.725 140.275 0 90.5 0Z" fill="white"/>
<path d="M78.0562 124.438H100.681V147.062H78.0562V124.438Z" fill="white"/>
</svg>
