<svg width="30" height="30" viewBox="0 0 30 30" fill="none" xmlns="http://www.w3.org/2000/svg">
<path d="M4.75291 10.9022C4.75291 7.46928 7.54871 4.6873 10.9678 4.6873C14.2792 4.6873 16.9988 7.29372 17.1736 10.5672C17.6626 10.0859 18.3328 9.78828 19.0714 9.78828H21.87V8.6835C21.87 8.26891 21.5339 7.93291 21.1194 7.93291H19.333C19.2304 7.64367 19.1134 7.36122 18.9824 7.08672L20.2456 5.82352C20.5388 5.53037 20.5388 5.05513 20.2456 4.76198L17.1079 1.6243C16.8148 1.33115 16.3396 1.33115 16.0465 1.6243L14.7833 2.8875C14.5087 2.75654 14.2263 2.63961 13.9371 2.53689V0.750587C13.9371 0.336065 13.601 0 13.1865 0H8.74917C8.33465 0 7.99858 0.336065 7.99858 0.750587V2.53696C7.70934 2.63961 7.42695 2.75661 7.15239 2.88757L5.88913 1.62437C5.59597 1.33122 5.12074 1.33122 4.82765 1.62437L1.68998 4.76198C1.39683 5.05513 1.39683 5.53037 1.68998 5.82352L2.95317 7.08672C2.82222 7.36122 2.70528 7.64367 2.60256 7.93291H0.81626C0.401739 7.93291 0.0656738 8.26898 0.0656738 8.6835V13.1208C0.0656738 13.5353 0.401739 13.8713 0.81626 13.8713H2.60263C2.70528 14.1606 2.82228 14.443 2.95324 14.7175L1.68998 15.9809C1.39683 16.274 1.39683 16.7493 1.68998 17.0424L4.82765 20.18C5.1208 20.4732 5.59604 20.4732 5.88913 20.18L7.15232 18.9168C7.42689 19.0478 7.70928 19.1647 7.99852 19.2674V21.0538C7.99852 21.4683 8.33458 21.8044 8.7491 21.8044H9.7226V19.1371C9.7226 18.33 10.0782 17.6049 10.6403 17.1085C7.36069 16.9373 4.75291 14.2131 4.75291 10.9022Z" fill="white"/>
<path d="M14.1962 11.8077C14.4891 11.5148 14.8375 11.2977 15.2173 11.1654C15.3683 8.69192 13.4037 6.64377 10.9678 6.64377C8.61604 6.64377 6.70947 8.55033 6.70947 10.9021C6.70947 13.3092 8.70956 15.2575 11.1475 15.1559C11.4135 14.5017 11.5366 14.4673 14.1962 11.8077Z" fill="white"/>
<path d="M29.1837 18.3865H27.9514C27.855 18.1094 27.7432 17.8396 27.6166 17.5782L28.4879 16.7069C28.7811 16.4137 28.7811 15.9385 28.4879 15.6453L26.0338 13.1912C25.8873 13.0447 25.6951 12.9714 25.5031 12.9714C25.311 12.9714 25.1189 13.0447 24.9723 13.1912L24.101 14.0626C23.8396 13.9359 23.5698 13.8241 23.2926 13.7277V12.4954C23.2926 12.0809 22.9566 11.7448 22.5421 11.7448H19.0714C18.6569 11.7448 18.3208 12.0809 18.3208 12.4954V13.7277C18.0438 13.8241 17.7739 13.9359 17.5125 14.0626L16.6411 13.1912C16.4946 13.0447 16.3025 12.9714 16.1104 12.9714C15.9183 12.9714 15.7262 13.0447 15.5797 13.1912L13.1255 15.6453C12.8324 15.9385 12.8324 16.4137 13.1255 16.7069L13.9969 17.5782C13.8702 17.8396 13.7585 18.1094 13.6621 18.3865H12.4298C12.0153 18.3865 11.6792 18.7226 11.6792 19.1371V22.6077C11.6792 23.0223 12.0153 23.3583 12.4298 23.3583H13.6621C13.7585 23.6354 13.8702 23.9052 13.997 24.1666L13.1256 25.0379C12.8324 25.3311 12.8324 25.8063 13.1256 26.0995L15.5797 28.5536C15.7263 28.7002 15.9184 28.7735 16.1105 28.7735C16.3025 28.7735 16.4947 28.7002 16.6412 28.5536L17.5126 27.6822C17.7739 27.8089 18.0438 27.9207 18.3209 28.0171V29.2494C18.3209 29.664 18.6569 30 19.0715 30H22.5421C22.9566 30 23.2927 29.6639 23.2927 29.2494V28.0171C23.5698 27.9207 23.8396 27.809 24.101 27.6823L24.9724 28.5537C25.1189 28.7002 25.3111 28.7735 25.5031 28.7735C25.6952 28.7735 25.8873 28.7002 26.0339 28.5537L28.488 26.0996C28.7811 25.8064 28.7811 25.3312 28.488 25.038L27.6166 24.1666C27.7433 23.9053 27.855 23.6354 27.9515 23.3584H29.1838C29.5983 23.3584 29.9344 23.0223 29.9344 22.6078V19.1371C29.9343 18.7226 29.5983 18.3865 29.1837 18.3865ZM20.8068 26.3941C17.7621 26.3941 15.285 23.9171 15.285 20.8724C15.285 17.8276 17.762 15.3506 20.8068 15.3506C23.8514 15.3506 26.3285 17.8276 26.3285 20.8724C26.3285 23.9171 23.8514 26.3941 20.8068 26.3941Z" fill="white"/>
<path d="M20.8067 24.4377C22.7757 24.4377 24.3719 22.8415 24.3719 20.8724C24.3719 18.9034 22.7757 17.3072 20.8067 17.3072C18.8377 17.3072 17.2415 18.9034 17.2415 20.8724C17.2415 22.8415 18.8377 24.4377 20.8067 24.4377Z" fill="white"/>
</svg>
