<svg width="32" height="32" viewBox="0 0 32 32" fill="none" xmlns="http://www.w3.org/2000/svg">
<path d="M16 29C13.4288 29 10.9154 28.2376 8.77759 26.8091C6.63975 25.3807 4.97351 23.3503 3.98957 20.9749C3.00563 18.5995 2.74819 15.9856 3.2498 13.4638C3.75141 10.9421 4.98953 8.6257 6.80762 6.80762C8.6257 4.98953 10.9421 3.75141 13.4638 3.2498C15.9856 2.74819 18.5995 3.00563 20.9749 3.98957C23.3503 4.97351 25.3807 6.63975 26.8091 8.77759C28.2376 10.9154 29 13.4288 29 16C29 19.4478 27.6304 22.7544 25.1924 25.1924C22.7544 27.6304 19.4478 29 16 29V29ZM16 5.00001C13.8244 5.00001 11.6977 5.64514 9.88873 6.85384C8.07979 8.06254 6.66989 9.7805 5.83733 11.7905C5.00477 13.8005 4.78693 16.0122 5.21137 18.146C5.63581 20.2798 6.68345 22.2398 8.22183 23.7782C9.76021 25.3166 11.7202 26.3642 13.854 26.7886C15.9878 27.2131 18.1995 26.9952 20.2095 26.1627C22.2195 25.3301 23.9375 23.9202 25.1462 22.1113C26.3549 20.3023 27 18.1756 27 16C27 13.0826 25.8411 10.2847 23.7782 8.22183C21.7153 6.15893 18.9174 5.00001 16 5.00001Z" fill="white"/>
<path d="M16 17C15.0111 17 14.0444 16.7068 13.2222 16.1574C12.3999 15.6079 11.759 14.827 11.3806 13.9134C11.0022 12.9998 10.9031 11.9945 11.0961 11.0246C11.289 10.0546 11.7652 9.16373 12.4645 8.46447C13.1637 7.76521 14.0546 7.289 15.0246 7.09608C15.9945 6.90315 16.9998 7.00217 17.9134 7.3806C18.8271 7.75904 19.6079 8.39991 20.1574 9.22215C20.7068 10.0444 21 11.0111 21 12C21 13.3261 20.4732 14.5979 19.5355 15.5355C18.5979 16.4732 17.3261 17 16 17ZM16 9C15.4067 9 14.8266 9.17595 14.3333 9.50559C13.8399 9.83524 13.4554 10.3038 13.2284 10.852C13.0013 11.4001 12.9419 12.0033 13.0576 12.5853C13.1734 13.1672 13.4591 13.7018 13.8787 14.1213C14.2982 14.5409 14.8328 14.8266 15.4147 14.9424C15.9967 15.0581 16.5999 14.9987 17.1481 14.7716C17.6962 14.5446 18.1648 14.1601 18.4944 13.6667C18.8241 13.1734 19 12.5933 19 12C19 11.2044 18.6839 10.4413 18.1213 9.87868C17.5587 9.31607 16.7957 9 16 9Z" fill="white"/>
<path d="M25.5499 24C25.4111 24.0009 25.2736 23.973 25.1462 23.9179C25.0188 23.8628 24.9043 23.7818 24.8099 23.68C23.7485 22.5222 22.4583 21.5974 21.021 20.9639C19.5837 20.3305 18.0306 20.0022 16.4599 20H15.5399C12.6121 19.9937 9.79679 21.127 7.68992 23.16C7.49526 23.3206 7.24706 23.4017 6.99511 23.387C6.74316 23.3723 6.5061 23.2628 6.33148 23.0806C6.15686 22.8984 6.05759 22.6569 6.05359 22.4045C6.04959 22.1522 6.14116 21.9077 6.30992 21.72C8.7858 19.3269 12.0966 17.9926 15.5399 18H16.4599C18.3061 18.0042 20.1316 18.3901 21.8215 19.1335C23.5114 19.877 25.0293 20.9618 26.2799 22.32C26.4121 22.4625 26.4998 22.6403 26.5325 22.8319C26.5652 23.0234 26.5413 23.2203 26.4639 23.3985C26.3864 23.5767 26.2588 23.7285 26.0965 23.8353C25.9341 23.9422 25.7442 23.9994 25.5499 24V24Z" fill="white"/>
</svg>
